<svg width="74" height="62" viewBox="0 0 74 62" fill="none" xmlns="http://www.w3.org/2000/svg">
<path d="M70.32 46.024L63.28 53.64H48.24L40.24 42.376V22.024L48.24 10.76H63.28L70.448 18.376C70.7893 23.0693 70.1707 25.416 68.592 25.416C67.0133 25.416 65.9253 23.752 65.328 20.424L60.848 15.56H50.736L45.36 24.008V40.456L50.736 48.84H60.848L65.136 43.976C65.392 40.7333 66.3307 39.112 67.952 39.112C69.5307 39.112 70.32 41.416 70.32 46.024Z" fill="#04D6C5"/>
<path d="M51.32 46.024L44.28 53.64H29.24L21.24 42.376V22.024L29.24 10.76H44.28L51.448 18.376C51.7893 23.0693 51.1707 25.416 49.592 25.416C48.0133 25.416 46.9253 23.752 46.328 20.424L41.848 15.56H31.736L26.36 24.008V40.456L31.736 48.84H41.848L46.136 43.976C46.392 40.7333 47.3307 39.112 48.952 39.112C50.5307 39.112 51.32 41.416 51.32 46.024Z" fill="#04D6C5"/>
<path d="M32.32 46.024L25.28 53.64H10.24L2.24 42.376V22.024L10.24 10.76H25.28L32.448 18.376C32.7893 23.0693 32.1707 25.416 30.592 25.416C29.0133 25.416 27.9253 23.752 27.328 20.424L22.848 15.56H12.736L7.36 24.008V40.456L12.736 48.84H22.848L27.136 43.976C27.392 40.7333 28.3307 39.112 29.952 39.112C31.5307 39.112 32.32 41.416 32.32 46.024Z" fill="#04D6C5"/>
</svg>
